# xmcd
#
# Track frame offsets:
#	150
#	13175
#	29800
#	40325
#	56150
#	72925
#	89025
#	100225
#	115150
#	134475
#	150025
#	180000
#	204125
#	215700
#	226162
#
# Disc length: 3281 seconds
#
# Revision: 0
# Processed by: cddbd v1.5.2PL0 Copyright (c) Steve Scherf et al.
# Submitted via: audiograbber 1.83.01
#
DISCID=ca0ccf0f
DTITLE=Compilation - Cookin' With The Blues
DYEAR=1992
DGENRE=Blues
TTITLE0=Muddy Waters - Hoochie Coochie Man
TTITLE1=Buddy Guy And Junior Wells - Messin' With The Kid
TTITLE2=Paul DeLay Band - Harpoon Man
TTITLE3=Clarence Edwards - Rocky Mountains
TTITLE4=Charlie Musselwhite - Trouble No More
TTITLE5=U.P Wilson - Comes 11
TTITLE6=Ike Turner - Ho Ho
TTITLE7=King Biscuit Boy With The Ronnie Hawkins Band - Neighbour, Neighbour
TTITLE8=King Curtis - Home Cookin'
TTITLE9=Louisiana Red - Lightnin' Bug
TTITLE10=Eddie Clearwater - Came Up The Hard Way
TTITLE11=Troyce Key And J J Malone - New Car
TTITLE12=Junior Wells - Cha Cha Cha In Blues
TTITLE13=Mississippi Fred McDowell With Jo Ann Kelly - Glory Hallelujah
TTITLE14=Earl Hooker - The End Of The Blues
EXTD=
EXTT0=
EXTT1=
EXTT2=
EXTT3=
EXTT4=
EXTT5=
EXTT6=
EXTT7=
EXTT8=
EXTT9=
EXTT10=
EXTT11=
EXTT12=
EXTT13=
EXTT14=
PLAYORDER=
